<svg xmlns="http://www.w3.org/2000/svg" width="33.352" height="25.405" viewBox="0 0 33.352 25.405">
  <g id="email" transform="translate(0 -61)">
    <g id="Grupo_13" data-name="Grupo 13" transform="translate(0 61)">
      <path id="Trazado_10" data-name="Trazado 10" d="M30.421,61H2.931A2.936,2.936,0,0,0,0,63.931V83.474a2.936,2.936,0,0,0,2.931,2.931h27.49a2.936,2.936,0,0,0,2.931-2.931V63.931A2.936,2.936,0,0,0,30.421,61Zm-.4,1.954L16.738,76.232,3.346,62.954ZM1.954,83.069V64.327l9.412,9.331Zm1.382,1.382,9.417-9.417,3.3,3.272a.977.977,0,0,0,1.379,0l3.218-3.218,9.366,9.366ZM31.4,83.069,22.032,73.7,31.4,64.336Z" transform="translate(0 -61)" fill="#fff"/>
    </g>
  </g>
</svg>
