<svg xmlns="http://www.w3.org/2000/svg" viewBox="0 0 510.9 511"><defs><style>.cls-1{fill:#a7a5a6;}</style></defs><g id="Capa_2" data-name="Capa 2"><g id="Capa_1-2" data-name="Capa 1"><path class="cls-1" d="M509.6,150.24c-1.19-27.16-5.59-45.82-11.88-62A130.78,130.78,0,0,0,423,13.48C406.69,7.19,388.12,2.8,361,1.6,333.61.3,324.93,0,255.55,0S177.49.3,150.24,1.5s-45.82,5.59-62,11.87A124.79,124.79,0,0,0,42.92,42.92,125.92,125.92,0,0,0,13.48,88.15C7.19,104.42,2.8,123,1.6,150.13.3,177.49,0,186.17,0,255.55s.3,78.06,1.5,105.31,5.59,45.82,11.88,62a130.78,130.78,0,0,0,74.77,74.76c16.27,6.29,34.83,10.68,62,11.88s35.93,1.5,105.31,1.5,78.06-.3,105.32-1.5,45.81-5.59,62-11.88a130.71,130.71,0,0,0,74.77-74.76c6.28-16.28,10.68-34.84,11.87-62s1.5-35.93,1.5-105.31S510.8,177.49,509.6,150.24Zm-46,208.63c-1.1,24.95-5.3,38.43-8.79,47.41a84.75,84.75,0,0,1-48.52,48.52c-9,3.49-22.55,7.69-47.41,8.78-26.95,1.2-35,1.5-103.22,1.5s-76.36-.3-103.22-1.5c-25-1.09-38.43-5.29-47.42-8.78a78.52,78.52,0,0,1-29.34-19.07A79.32,79.32,0,0,1,56.6,406.39c-3.49-9-7.69-22.57-8.78-47.42-1.2-27-1.5-35-1.5-103.22s.3-76.37,1.5-103.22c1.09-25,5.29-38.43,8.78-47.41A77.56,77.56,0,0,1,75.77,75.76,79.3,79.3,0,0,1,105.12,56.7c9-3.49,22.56-7.68,47.41-8.78,26.95-1.2,35-1.5,103.22-1.5s76.36.3,103.22,1.5c25,1.1,38.43,5.29,47.42,8.78a78.62,78.62,0,0,1,29.34,19.06,79.32,79.32,0,0,1,19.07,29.36c3.49,9,7.69,22.55,8.79,47.41,1.19,26.95,1.49,35,1.49,103.22S464.78,331.92,463.59,358.87Z"/><path class="cls-1" d="M255.55,124.28A131.27,131.27,0,1,0,386.82,255.55,131.31,131.31,0,0,0,255.55,124.28Zm0,216.42a85.15,85.15,0,1,1,85.15-85.15A85.17,85.17,0,0,1,255.55,340.7Z"/><path class="cls-1" d="M422.66,119.09A30.65,30.65,0,1,1,392,88.45,30.65,30.65,0,0,1,422.66,119.09Z"/></g></g></svg>