<svg xmlns="http://www.w3.org/2000/svg" viewBox="0 0 682.67 512"><defs><style>.cls-1{fill:#a7a5a6;}</style></defs><g id="Capa_2" data-name="Capa 2"><g id="Capa_1-2" data-name="Capa 1"><path class="cls-1" d="M618.67,0H64A64.07,64.07,0,0,0,0,64V448a64.07,64.07,0,0,0,64,64H618.67a64.07,64.07,0,0,0,64-64V64A64.07,64.07,0,0,0,618.67,0Zm0,42.67a21.21,21.21,0,0,1,8.17,1.65L341.33,291.77,55.82,44.32A21.22,21.22,0,0,1,64,42.67Zm0,426.66H64A21.34,21.34,0,0,1,42.67,448V89.4L327.35,336.12a21.36,21.36,0,0,0,28,0L640,89.4V448A21.34,21.34,0,0,1,618.67,469.33Z"/></g></g></svg>