<svg xmlns="http://www.w3.org/2000/svg" viewBox="0 0 321.84 39.73"><defs><style>.cls-1{fill:#1d1d1b;}.cls-2{fill:#ffe200;}</style></defs><title>Recurso 2</title><g id="Capa_2" data-name="Capa 2"><g id="Capa_1-2" data-name="Capa 1"><path class="cls-1" d="M229,12a2.29,2.29,0,0,0-1.85-.84,2.8,2.8,0,0,0-2.81,3,2.73,2.73,0,0,0,2.75,3,2.4,2.4,0,0,0,2-.94l1.16.81A3.83,3.83,0,0,1,227,18.4a4.13,4.13,0,0,1-4.33-4.29,4.13,4.13,0,0,1,4.4-4.24,3.78,3.78,0,0,1,2.95,1.24Z"/><path class="cls-1" d="M233.55,12.53a2.86,2.86,0,0,1,3,2.89,3,3,0,0,1-6,0A2.85,2.85,0,0,1,233.55,12.53Zm0,4.68a1.65,1.65,0,0,0,1.6-1.79,1.6,1.6,0,1,0-3.19,0A1.64,1.64,0,0,0,233.55,17.21Z"/><path class="cls-1" d="M237.88,12.69h1.31v.88h0a1.88,1.88,0,0,1,1.71-1,2,2,0,0,1,2,2.23V18.2h-1.38v-3c0-.66-.15-1.47-1-1.47a1.34,1.34,0,0,0-1.28,1.49v3h-1.38Z"/><path class="cls-1" d="M247.58,14.16a1.57,1.57,0,0,0-1.21-.6c-.44,0-.88.16-.88.6s.42.54,1.19.72,1.78.56,1.78,1.64c0,1.34-1.09,1.84-2.3,1.84a3.11,3.11,0,0,1-2.26-.91l.91-.85a1.81,1.81,0,0,0,1.41.69c.4,0,.89-.16.89-.65s-.43-.6-1.27-.79-1.63-.53-1.63-1.56c0-1.23,1.11-1.76,2.2-1.76a2.63,2.63,0,0,1,2.06.84Z"/><path class="cls-1" d="M248.86,13.79v-1.1h1v-1.6h1.35v1.6h1.38v1.1h-1.38v2.56c0,.49.11.85.72.85a1.44,1.44,0,0,0,.59-.11l0,1.07a2.59,2.59,0,0,1-.91.15c-1.46,0-1.79-.89-1.79-1.95V13.79Z"/><path class="cls-1" d="M253.56,12.69h1.32v.92h0a1.79,1.79,0,0,1,1.61-1.08,1.76,1.76,0,0,1,.33,0v1.27a1.51,1.51,0,0,0-.43-.06,1.44,1.44,0,0,0-1.48,1.48V18.2h-1.37Z"/><path class="cls-1" d="M262.76,18.2h-1.31v-.89h0a1.89,1.89,0,0,1-1.71,1.05,2,2,0,0,1-2-2.23V12.69h1.37v3.05c0,.66.15,1.47,1,1.47a1.35,1.35,0,0,0,1.28-1.49v-3h1.38Z"/><path class="cls-1" d="M268.18,14.22a1.47,1.47,0,0,0-1.14-.54,1.6,1.6,0,0,0-1.51,1.76,1.62,1.62,0,0,0,1.56,1.77,1.56,1.56,0,0,0,1.16-.49l.86.87a2.8,2.8,0,0,1-2,.77,2.83,2.83,0,0,1-3-2.92,2.82,2.82,0,0,1,3-2.91,2.75,2.75,0,0,1,2.08.86Z"/><path class="cls-1" d="M269.22,13.79v-1.1h1v-1.6h1.35v1.6h1.38v1.1h-1.38v2.56c0,.49.11.85.72.85a1.44,1.44,0,0,0,.59-.11l0,1.07a2.59,2.59,0,0,1-.91.15c-1.46,0-1.79-.89-1.79-1.95V13.79Z"/><path class="cls-1" d="M274.62,10a.83.83,0,1,1-.88.83A.85.85,0,0,1,274.62,10Zm-.68,2.7h1.38V18.2h-1.38Z"/><path class="cls-1" d="M279.67,12.53a2.85,2.85,0,0,1,3,2.89,3,3,0,0,1-6,0A2.86,2.86,0,0,1,279.67,12.53Zm0,4.68a1.64,1.64,0,0,0,1.59-1.79,1.6,1.6,0,1,0-3.19,0A1.65,1.65,0,0,0,279.67,17.21Z"/><path class="cls-1" d="M284,12.69h1.31v.88h0a1.89,1.89,0,0,1,1.71-1,2,2,0,0,1,2,2.23V18.2h-1.38v-3c0-.66-.15-1.47-1-1.47a1.34,1.34,0,0,0-1.29,1.49v3H284Z"/><path class="cls-1" d="M299.26,16.26l1.89,1.94h-1.84l-.89-.93A3,3,0,0,1,296,18.36,2.45,2.45,0,0,1,293.27,16a2.54,2.54,0,0,1,1.76-2.3,2.62,2.62,0,0,1-.87-1.83,2.06,2.06,0,0,1,2.3-2,2,2,0,0,1,2.25,2A2.46,2.46,0,0,1,297,14l1.33,1.39.94-1.48h1.58Zm-3.45-1.69a1.44,1.44,0,0,0-1.12,1.37A1.32,1.32,0,0,0,296,17.21a1.77,1.77,0,0,0,1.52-.84Zm-.28-2.68a1.77,1.77,0,0,0,.72,1.29c.63-.26,1.17-.68,1.17-1.29a.95.95,0,0,0-1.89,0Z"/><path class="cls-1" d="M223.09,22.3H226c2.12,0,4.48,1,4.48,4.07,0,2.84-2.36,4.06-4.48,4.06h-2.89Zm2.66,6.87c1.49,0,3.16-.61,3.16-2.8s-1.67-2.83-3.16-2.83h-1.21v5.63Z"/><path class="cls-1" d="M232.49,22.22a.83.83,0,1,1-.87.83A.85.85,0,0,1,232.49,22.22Zm-.67,2.7h1.38v5.51h-1.38Z"/><path class="cls-1" d="M237.89,26.39a1.57,1.57,0,0,0-1.21-.6c-.43,0-.88.16-.88.6s.42.54,1.19.72,1.78.56,1.78,1.64c0,1.35-1.09,1.84-2.29,1.84a3.07,3.07,0,0,1-2.26-.91l.9-.85a1.81,1.81,0,0,0,1.42.69c.4,0,.88-.16.88-.65s-.43-.6-1.26-.79-1.63-.53-1.63-1.56c0-1.23,1.1-1.76,2.19-1.76a2.65,2.65,0,0,1,2.06.84Z"/><path class="cls-1" d="M241.29,24.92v.77h0a2.19,2.19,0,0,1,1.91-.93,2.71,2.71,0,0,1,2.67,2.89,2.73,2.73,0,0,1-2.71,2.94,2.12,2.12,0,0,1-1.82-.9h0v3.49H240V24.92Zm1.63,1a1.71,1.71,0,0,0-1.62,1.79,1.69,1.69,0,0,0,1.62,1.77,1.65,1.65,0,0,0,1.58-1.79A1.63,1.63,0,0,0,242.92,25.88Z"/><path class="cls-1" d="M252.26,30.43H251v-.89h0a1.87,1.87,0,0,1-1.71,1.05,2,2,0,0,1-2-2.23V24.92h1.37v3c0,.66.15,1.47,1,1.47A1.35,1.35,0,0,0,250.88,28v-3h1.38Z"/><path class="cls-1" d="M253.12,26v-1.1h1V23.33h1.36v1.59h1.37V26h-1.37v2.56c0,.49.11.85.72.85a1.47,1.47,0,0,0,.59-.11l0,1.07a2.65,2.65,0,0,1-.92.15c-1.45,0-1.79-.89-1.79-1.95V26Z"/><path class="cls-1" d="M263.06,28.11h-4.19a1.53,1.53,0,0,0,1.57,1.35,1.66,1.66,0,0,0,1.46-.71l.92.74a3,3,0,0,1-5.33-1.78,2.81,2.81,0,0,1,2.92-2.95c1.54,0,2.66,1,2.66,3C263.07,27.87,263.07,28,263.06,28.11Zm-1.37-1a1.22,1.22,0,0,0-1.29-1.33,1.48,1.48,0,0,0-1.53,1.33Z"/><path class="cls-1" d="M267.34,22.3h2.82c1.53,0,3,.61,3,2.33a2.18,2.18,0,0,1-1.86,2.2l2.17,3.6h-1.75L269.84,27h-1.06v3.44h-1.44ZM270,25.8c.81,0,1.74-.19,1.74-1.18s-.87-1.1-1.62-1.1h-1.31V25.8Z"/><path class="cls-1" d="M279.6,28.11h-4.19A1.53,1.53,0,0,0,277,29.46a1.66,1.66,0,0,0,1.46-.71l.92.74A3,3,0,0,1,274,27.71,2.81,2.81,0,0,1,277,24.76c1.53,0,2.66,1,2.66,3C279.61,27.87,279.61,28,279.6,28.11Zm-1.37-1a1.22,1.22,0,0,0-1.29-1.33,1.48,1.48,0,0,0-1.53,1.33Z"/><path class="cls-1" d="M284,26.39a1.57,1.57,0,0,0-1.21-.6c-.43,0-.88.16-.88.6s.42.54,1.19.72,1.78.56,1.78,1.64c0,1.35-1.09,1.84-2.29,1.84a3.07,3.07,0,0,1-2.26-.91l.9-.85a1.81,1.81,0,0,0,1.41.69c.41,0,.89-.16.89-.65s-.43-.6-1.26-.79-1.63-.53-1.63-1.56c0-1.23,1.1-1.76,2.19-1.76a2.65,2.65,0,0,1,2.06.84Z"/><path class="cls-1" d="M288.71,24.76a2.85,2.85,0,0,1,3,2.89,3,3,0,0,1-6,0A2.86,2.86,0,0,1,288.71,24.76Zm0,4.68a1.64,1.64,0,0,0,1.59-1.79,1.6,1.6,0,1,0-3.19,0A1.65,1.65,0,0,0,288.71,29.44Z"/><path class="cls-1" d="M293.06,21.75h1.38v8.68h-1.38Z"/><path class="cls-1" d="M301.14,30.43h-1.31v-.89h0a1.87,1.87,0,0,1-1.71,1.05,2,2,0,0,1-2-2.23V24.92h1.37v3c0,.66.15,1.47,1,1.47A1.35,1.35,0,0,0,299.76,28v-3h1.38Z"/><path class="cls-1" d="M302,26v-1.1h1V23.33h1.36v1.59h1.38V26h-1.38v2.56c0,.49.11.85.72.85a1.47,1.47,0,0,0,.59-.11l0,1.07a2.63,2.63,0,0,1-.91.15c-1.46,0-1.8-.89-1.8-1.95V26Z"/><path class="cls-1" d="M307.39,22.22a.83.83,0,1,1-.87.83A.85.85,0,0,1,307.39,22.22Zm-.67,2.7h1.37v5.51h-1.37Z"/><path class="cls-1" d="M312.44,24.76a2.86,2.86,0,0,1,3,2.89,3,3,0,0,1-6,0A2.85,2.85,0,0,1,312.44,24.76Zm0,4.68a1.65,1.65,0,0,0,1.6-1.79,1.6,1.6,0,1,0-3.19,0A1.64,1.64,0,0,0,312.44,29.44Z"/><path class="cls-1" d="M316.77,24.92h1.31v.88h0a1.88,1.88,0,0,1,1.71-1,2,2,0,0,1,2,2.23v3.44h-1.37V27.38c0-.66-.15-1.47-1-1.47a1.35,1.35,0,0,0-1.28,1.49v3h-1.38Z"/><path class="cls-1" d="M15.88,13.74a5.84,5.84,0,0,0-4.69-2.13c-4.25,0-7.14,3.29-7.14,7.55,0,4.48,2.74,7.6,7,7.6a6.06,6.06,0,0,0,5-2.39L19,26.44a9.77,9.77,0,0,1-8,3.61c-6.44,0-11-4.45-11-10.89C0,12.54,4.84,8.37,11.19,8.37c2.68,0,5.86,1,7.49,3.15Z"/><path class="cls-1" d="M21.27,8.9h7.31C34,8.9,40,11.46,40,19.21c0,7.23-6,10.32-11.4,10.32H21.27ZM28,26.32c3.79,0,8-1.54,8-7.11,0-5.91-4.25-7.16-8-7.16H24.94V26.32Z"/><path class="cls-1" d="M42.36,8.9h7.17c3.88,0,7.6,1.54,7.6,5.91,0,3-1.83,4.93-4.72,5.57l5.51,9.15H53.49l-4.78-8.74H46v8.74H42.36ZM49,17.79c2.07,0,4.43-.5,4.43-3,0-2.25-2.21-2.8-4.11-2.8H46v5.8Z"/><path class="cls-1" d="M79.35,26.26a8.88,8.88,0,0,1-7.59,3.79A10.28,10.28,0,0,1,61.18,19.39,10.33,10.33,0,0,1,71.76,8.73c3,0,5.81,1.23,7.22,3.21L77.26,13.2a6.65,6.65,0,0,0-5.47-2.67c-5.25,0-8.43,4.13-8.43,8.86s3.21,8.85,8.43,8.85a7,7,0,0,0,6-3Z"/><path class="cls-1" d="M88.61,29.87a6.88,6.88,0,0,1-7.14-7,7.15,7.15,0,0,1,14.3,0A6.88,6.88,0,0,1,88.61,29.87Zm0-12.46c-3.1,0-5.08,2.41-5.08,5.41s2,5.39,5.08,5.39,5.1-2.38,5.1-5.39S91.73,17.41,88.61,17.41Z"/><path class="cls-1" d="M101.7,16.12c.06.72.11,1.72.11,2.29h.06a5.23,5.23,0,0,1,4.59-2.63c3.41,0,5.1,2.2,5.1,5.53v8.22h-2V22.11c0-2.81-.83-4.7-3.64-4.7-2.06,0-4.07,1.66-4.07,5.24v6.88h-2V19.07c0-.71,0-2-.11-2.95Z"/><path class="cls-1" d="M123.73,19.3a3.62,3.62,0,0,0-3.29-1.89c-1.4,0-2.84.6-2.84,2.09,0,1.26,1,1.83,3.21,2.29,3.15.66,4.64,1.84,4.64,3.93,0,3.06-2.58,4.15-5,4.15a6.27,6.27,0,0,1-5.3-2.6l1.55-1.15a4.44,4.44,0,0,0,3.72,2.09c1.66,0,3.15-.6,3.15-2.35,0-1.4-1.4-2-4-2.58-1.58-.37-3.84-1.06-3.84-3.61,0-2.72,2.35-3.89,4.78-3.89a5.44,5.44,0,0,1,4.7,2.4Z"/><path class="cls-1" d="M139.06,29.53c-.05-.72-.11-1.72-.11-2.29h-.06a5.23,5.23,0,0,1-4.58,2.63c-3.41,0-5.1-2.2-5.1-5.53V16.12h1.95v7.42c0,2.81.83,4.7,3.63,4.7,2.07,0,4.07-1.66,4.07-5.24V16.12h1.95V26.58c0,.71,0,2,.12,3Z"/><path class="cls-1" d="M148,29.53H146V7.87H148Z"/><path class="cls-1" d="M159.24,17.75h-3.79v7.83c0,2,.83,2.46,2,2.46a4,4,0,0,0,1.69-.43l.09,1.69a6.29,6.29,0,0,1-2.3.4c-1.43,0-3.43-.63-3.43-3.58V17.75h-2.78V16.12h2.78V9.69h1.94v6.43h3.79Z"/><path class="cls-1" d="M163.28,12.34A1.38,1.38,0,1,1,164.65,11,1.4,1.4,0,0,1,163.28,12.34Zm1,17.19H162.3V16.12h1.95Z"/><path class="cls-1" d="M171.18,16.12c.06.72.12,1.72.12,2.29h.06a5.21,5.21,0,0,1,4.58-2.63c3.41,0,5.1,2.2,5.1,5.53v8.22h-1.95V22.11c0-2.81-.83-4.7-3.64-4.7-2.06,0-4.07,1.66-4.07,5.24v6.88h-1.94V19.07c0-.71,0-2-.12-2.95Z"/><path class="cls-1" d="M186.8,32.22a6.78,6.78,0,0,0,5.13,2.47c3.84,0,5.24-2.38,5.24-5.27V26.89h-.06A6.07,6.07,0,0,1,192,29.53a6.57,6.57,0,0,1-6.93-6.82A6.72,6.72,0,0,1,192,15.78a6,6,0,0,1,5.07,2.66h.06V16.12h2v13.3c0,2.92-1.35,7-7.28,7a9,9,0,0,1-6.44-2.7Zm5.44-4.35a5,5,0,0,0,5.16-5.22,5.15,5.15,0,0,0-5.16-5.24,5,5,0,0,0-5.07,5.24A4.93,4.93,0,0,0,192.24,27.87Z"/><rect class="cls-2" x="191.6" y="18.98" width="39.99" height="1.77" transform="translate(157.03 225.26) rotate(-80.49)"/></g></g></svg>