<svg xmlns="http://www.w3.org/2000/svg" width="23.352" height="23.352" viewBox="0 0 23.352 23.352">
  <path id="Icon_awesome-phone-alt" data-name="Icon awesome-phone-alt" d="M22.686,16.5l-5.108-2.189a1.1,1.1,0,0,0-1.277.315l-2.262,2.764A16.906,16.906,0,0,1,5.957,9.31L8.721,7.047A1.092,1.092,0,0,0,9.035,5.77L6.846.662A1.1,1.1,0,0,0,5.592.028L.848,1.123A1.1,1.1,0,0,0,0,2.189,21.161,21.161,0,0,0,21.163,23.353a1.1,1.1,0,0,0,1.067-.848l1.095-4.743A1.108,1.108,0,0,0,22.686,16.5Z" transform="translate(0 0)" fill="#fff"/>
</svg>
