<svg xmlns="http://www.w3.org/2000/svg" xmlns:xlink="http://www.w3.org/1999/xlink" viewBox="0 0 209.57 279.52"><defs><style>.cls-1{fill:none;}.cls-2{isolation:isolate;}.cls-3{fill:url(#linear-gradient);}.cls-4,.cls-5,.cls-8{mix-blend-mode:screen;}.cls-4{fill:url(#linear-gradient-2);}.cls-5{fill:url(#linear-gradient-3);}.cls-6{fill:url(#linear-gradient-4);}.cls-7{clip-path:url(#clip-path);}.cls-8{fill:url(#linear-gradient-5);}.cls-9{font-size:10.82px;fill:#fff;font-family:Papyrus-Regular, Papyrus;}</style><linearGradient id="linear-gradient" x1="-3276.27" y1="110.48" x2="-3162.43" y2="110.48" gradientTransform="matrix(-1, 0, 0, 1, -3117.09, 31.63)" gradientUnits="userSpaceOnUse"><stop offset="0" stop-color="#333"/><stop offset="0" stop-color="#323232"/><stop offset="0.03" stop-color="#1c1c1c"/><stop offset="0.06" stop-color="#0c0c0c"/><stop offset="0.1" stop-color="#030303"/><stop offset="0.15"/><stop offset="0.87"/><stop offset="0.91" stop-color="#050505"/><stop offset="0.95" stop-color="#131313"/><stop offset="0.99" stop-color="#2a2a2a"/><stop offset="1" stop-color="#333"/></linearGradient><linearGradient id="linear-gradient-2" x1="-3219.08" y1="7.04" x2="-3219.08" y2="-0.79" gradientTransform="matrix(-1, 0, 0, 1, -3164.54, 0)" gradientUnits="userSpaceOnUse"><stop offset="0"/><stop offset="0.16" stop-color="#050505"/><stop offset="0.34" stop-color="#131313"/><stop offset="0.53" stop-color="#2a2a2a"/><stop offset="0.74" stop-color="#4b4b4b"/><stop offset="0.95" stop-color="#747474"/><stop offset="1" stop-color="gray"/></linearGradient><linearGradient id="linear-gradient-3" x1="-2864.08" y1="-3084.52" x2="-2864.08" y2="-3092.35" gradientTransform="matrix(1, 0, 0, -1, 2918.63, -2870.67)" xlink:href="#linear-gradient-2"/><linearGradient id="linear-gradient-4" x1="0.48" y1="151.58" x2="257.87" y2="-44.01" gradientUnits="userSpaceOnUse"><stop offset="0" stop-color="#d8d8d9"/><stop offset="0.89" stop-color="#fff"/></linearGradient><clipPath id="clip-path" transform="translate(47.45 31.63)"><path class="cls-1" d="M106.29,16.52V204.45A11.52,11.52,0,0,1,94.73,216H14.36A11.53,11.53,0,0,1,2.79,204.45V16.52A11.48,11.48,0,0,1,12.42,5.2,8.47,8.47,0,0,1,14.36,5H28.47a3.24,3.24,0,0,1,3.24,3.24A3.28,3.28,0,0,0,35,11.53H74.14a3.28,3.28,0,0,0,3.24-3.29A3.23,3.23,0,0,1,80.62,5H94.73A11.53,11.53,0,0,1,106.29,16.52Z"/></clipPath><linearGradient id="linear-gradient-5" x1="0.27" y1="169.79" x2="105.56" y2="17.17" gradientUnits="userSpaceOnUse"><stop offset="0" stop-color="#fff"/><stop offset="0.03" stop-color="#ededed"/><stop offset="0.14" stop-color="#b6b6b6"/><stop offset="0.26" stop-color="#868686"/><stop offset="0.37" stop-color="#5d5d5d"/><stop offset="0.49" stop-color="#3b3b3b"/><stop offset="0.61" stop-color="#212121"/><stop offset="0.73" stop-color="#0f0f0f"/><stop offset="0.86" stop-color="#040404"/><stop offset="1"/></linearGradient></defs><title>Recurso 1</title><g class="cls-2"><g id="Capa_2" data-name="Capa 2"><g id="Layer_1" data-name="Layer 1"><rect class="cls-3" x="47.45" y="31.63" width="109.09" height="220.96" rx="15.24"/><path class="cls-4" d="M16.52,1.15H92.57a15.24,15.24,0,0,1,15.24,15.24v2.18A15.24,15.24,0,0,0,92.57,3.33h-76A15.24,15.24,0,0,0,1.28,18.57V16.39A15.24,15.24,0,0,1,16.52,1.15Z" transform="translate(47.45 31.63)"/><path class="cls-5" d="M92.57,219.75h-76A15.24,15.24,0,0,1,1.28,204.51v-2.18a15.24,15.24,0,0,0,15.24,15.24H92.57a15.24,15.24,0,0,0,15.24-15.24v2.18A15.24,15.24,0,0,1,92.57,219.75Z" transform="translate(47.45 31.63)"/><path class="cls-6" d="M106.29,16.52V204.45A11.52,11.52,0,0,1,94.73,216H14.36A11.53,11.53,0,0,1,2.79,204.45V16.52A11.48,11.48,0,0,1,12.42,5.2,8.47,8.47,0,0,1,14.36,5H28.47a3.24,3.24,0,0,1,3.24,3.24A3.28,3.28,0,0,0,35,11.53H74.14a3.28,3.28,0,0,0,3.24-3.29A3.23,3.23,0,0,1,80.62,5H94.73A11.53,11.53,0,0,1,106.29,16.52Z" transform="translate(47.45 31.63)"/><g class="cls-7"><image width="2936" height="3916" transform="translate(0 0) scale(0.07)" xlink:href="../../pexels-matheus-bertelli-1144687.jpg"/></g><path class="cls-8" d="M106.29,16.52V163.09L12.42,5.2A8.47,8.47,0,0,1,14.36,5H28.47a3.24,3.24,0,0,1,3.24,3.24A3.28,3.28,0,0,0,35,11.53H74.14a3.28,3.28,0,0,0,3.24-3.29A3.23,3.23,0,0,1,80.62,5H94.73A11.53,11.53,0,0,1,106.29,16.52Z" transform="translate(47.45 31.63)"/><text class="cls-9" x="47.45" y="31.63"><tspan x="59.86" y="128.66">Be the best version</tspan><tspan x="59.86" y="141.64" xml:space="preserve">        of yourself</tspan></text></g></g></g></svg>