<svg xmlns="http://www.w3.org/2000/svg" viewBox="0 0 623.11 509.99"><defs><style>.cls-1{fill:#a7a5a6;}</style></defs><g id="Capa_2" data-name="Capa 2"><g id="Capa_1-2" data-name="Capa 1"><path class="cls-1" d="M623.11,68.11c-39.2,1.81-38.34,1.66-42.78,2L603.55,3.85S531.09,30.5,512.72,35.27C464.48-8.09,392.77-10,341.5,21.5c-42,25.81-64.51,70.13-57,121.93C202.8,132.1,134,93.37,79.6,28.08L62.41,7.43,49.57,31C33.33,60.83,27.94,94.91,34.39,127a137.8,137.8,0,0,0,13.35,37.46L33,158.73l-1.75,24.64c-1.78,25,6.56,54.24,22.29,78.15a138.94,138.94,0,0,0,17.37,21.41l-7.62-1.17L72.59,310c12.22,37.09,37.61,65.79,70.55,81.75C110.24,405.71,83.66,414.62,40,429L0,442.13l36.92,20.18c14.08,7.7,63.82,33.4,113,41.12,109.25,17.13,232.24,3.18,315.05-71.4,69.74-62.81,92.63-152.16,87.87-245.14-.71-14.08,3.14-27.52,10.86-37.83C579.13,128.42,623,68.25,623.11,68.11ZM534.47,127.2c-12.82,17.11-19.25,39-18.09,61.55,4.79,93.79-20.73,166.52-75.86,216.17-64.4,58-168.28,80.77-285,62.47-21.13-3.32-43-10.74-61.06-18.15,36.63-12.6,64.92-23.84,110.6-45.46l63.77-30.18-70.41-4.51c-33.72-2.15-61.8-18.5-79.06-45a127,127,0,0,0,26.8-4.47l67.15-18.71L145.61,284.3C112.71,276.24,94,256.56,84,241.46A103.23,103.23,0,0,1,70.66,212c6.79,1.82,14.71,3.11,27.47,4.38l62.67,6.2-49.65-38.74C75.37,156,61,114,71.54,73.72c111.66,115.81,242.77,107.11,256,110.17-2.9-28.21-3-28.28-3.74-31C306.86,93.18,343.9,62.85,360.6,52.58c34.9-21.45,90.29-24.68,128.65,10.65a32.65,32.65,0,0,0,30,8,251.29,251.29,0,0,0,24.7-7.51l-15.75,45,20.1,0Z"/></g></g></svg>